<svg xmlns="http://www.w3.org/2000/svg" viewBox="0 0 24 24" fill="#16a34a">
  <!-- Rolling meadow hills -->
  <path d="M0 18c3-3 6-5 9-5s4 2 6 2 4-1.5 6-3.5c1-1 2-1.5 3-1.5v14H0z" opacity=".35"/>
  <path d="M0 20c2-2 5-4 8-4s5 2 7 2 5-2 7-4c1-1 2-1.5 2-1.5V24H0z" opacity=".55"/>
  <path d="M0 22c3-2 6-3 9-3s5 1.5 7 1.5S20 19 22 17.5c1-.7 2-1 2-1V24H0z"/>
  <!-- Wildflower stem -->
  <line x1="10" y1="18" x2="10" y2="10" stroke="#16a34a" stroke-width="1.2" stroke-linecap="round"/>
  <line x1="10" y1="14" x2="7.5" y2="12.5" stroke="#16a34a" stroke-width="1" stroke-linecap="round"/>
  <line x1="10" y1="12" x2="12.5" y2="10.5" stroke="#16a34a" stroke-width="1" stroke-linecap="round"/>
  <!-- Flower head -->
  <circle cx="10" cy="7.5" r="1.3" fill="#16a34a"/>
  <circle cx="11.5" cy="8.5" r="1.3" fill="#16a34a"/>
  <circle cx="8.5" cy="8.5" r="1.3" fill="#16a34a"/>
  <circle cx="9" cy="6.8" r="1.3" fill="#16a34a"/>
  <circle cx="11" cy="6.8" r="1.3" fill="#16a34a"/>
  <circle cx="10" cy="7.7" r="1" fill="#f0fdf4"/>
</svg>
